<svg width="48" height="48" viewBox="0 0 48 48" xmlns="http://www.w3.org/2000/svg" aria-label="Merge icon">
  <defs>
    <linearGradient id="gi" x1="0" y1="0" x2="1" y2="1">
      <stop offset="0" stop-color="#3B82F6"></stop>
      <stop offset="1" stop-color="#2563EB"></stop>
    </linearGradient>
  </defs>
  <rect x="0" y="0" width="48" height="48" rx="12" fill="url(#gi)"></rect>
  <path d="M12 14h12l6 6v14a2 2 0 0 1-2 2H12a2 2 0 0 1-2-2V16a2 2 0 0 1 2-2z" fill="white" opacity=".95"></path>
  <path d="M20 12h12l6 6v14a2 2 0 0 1-2 2H20a2 2 0 0 1-2-2V14a2 2 0 0 1 2-2z" fill="white" opacity=".75"></path>
  <rect x="16" y="30" width="20" height="3" rx="1.5" fill="#1E40AF" opacity=".9"></rect>
</svg>
